<svg width="16" height="16" viewBox="0 0 16 16" fill="none" xmlns="http://www.w3.org/2000/svg">
<path d="M8.66671 14.6666H6.00004C5.82323 14.6666 5.65366 14.5964 5.52864 14.4714C5.40361 14.3464 5.33337 14.1768 5.33337 14V9.86664H4.00004C3.82323 9.86664 3.65366 9.7964 3.52864 9.67137C3.40361 9.54635 3.33337 9.37678 3.33337 9.19997V6.79997C3.33337 6.62316 3.40361 6.45359 3.52864 6.32857C3.65366 6.20354 3.82323 6.1333 4.00004 6.1333H5.33337V4.99997C5.3801 3.98421 5.82712 3.02826 6.57669 2.34116C7.32626 1.65406 8.31739 1.2917 9.33337 1.3333H11.3334C11.5102 1.3333 11.6798 1.40354 11.8048 1.52857C11.9298 1.65359 12 1.82316 12 1.99997V4.39997C12 4.57678 11.9298 4.74635 11.8048 4.87137C11.6798 4.9964 11.5102 5.06664 11.3334 5.06664H9.33337V6.1333H11.3334C11.4363 6.13252 11.538 6.15559 11.6306 6.2007C11.7231 6.24581 11.8039 6.31173 11.8667 6.3933C11.9288 6.4761 11.9708 6.57222 11.9893 6.67405C12.0078 6.77587 12.0024 6.88061 11.9734 6.97997L11.3067 9.37997C11.2664 9.52417 11.1787 9.6506 11.0577 9.73888C10.9368 9.82717 10.7897 9.87217 10.64 9.86664H9.33337V14C9.33337 14.1768 9.26314 14.3464 9.13811 14.4714C9.01309 14.5964 8.84352 14.6666 8.66671 14.6666ZM6.66671 13.3333H8.00004V9.19997C8.00004 9.02316 8.07028 8.85359 8.1953 8.72857C8.32033 8.60354 8.4899 8.5333 8.66671 8.5333H10.16L10.4534 7.46664H8.66671C8.4899 7.46664 8.32033 7.3964 8.1953 7.27137C8.07028 7.14635 8.00004 6.97678 8.00004 6.79997V4.99997C8.01716 4.65803 8.16516 4.33578 8.41337 4.09997C8.66159 3.86416 8.99101 3.73287 9.33337 3.7333H10.6667V2.66664H9.33337C8.67125 2.6263 8.01992 2.84866 7.52069 3.28548C7.02147 3.7223 6.71462 4.33835 6.66671 4.99997V6.79997C6.66671 6.97678 6.59647 7.14635 6.47145 7.27137C6.34642 7.3964 6.17685 7.46664 6.00004 7.46664H4.66671V8.5333H6.00004C6.17685 8.5333 6.34642 8.60354 6.47145 8.72857C6.59647 8.85359 6.66671 9.02316 6.66671 9.19997V13.3333Z" fill="black"/>
</svg>
