<svg width="50" height="50" viewBox="0 0 50 50" fill="none" xmlns="http://www.w3.org/2000/svg">
<path d="M18.9453 38.4115C18.9453 39.8437 17.9362 40.5599 15.918 40.5599C13.5959 40.5599 12.4349 39.8763 12.4349 38.5091C12.4349 37.1202 13.4983 36.4258 15.625 36.4258C17.8385 36.4258 18.9453 37.0877 18.9453 38.4115ZM17.7734 23.2422C17.7734 25.0868 16.9705 26.0091 15.3646 26.0091C13.6936 26.0091 12.8581 25.0977 12.8581 23.2747C12.8581 21.3216 13.6936 20.3451 15.3646 20.3451C16.1458 20.3451 16.7426 20.6217 17.1549 21.1751C17.5673 21.7285 17.7734 22.4175 17.7734 23.2422ZM23.1771 20.8008V16.7318C21.4844 17.3611 20.0195 17.6758 18.7826 17.6758C17.6975 17.0464 16.5039 16.7318 15.2018 16.7318C13.3355 16.7318 11.7622 17.3503 10.4818 18.5872C9.20139 19.8242 8.5612 21.3759 8.5612 23.2422C8.5612 24.3273 8.88129 25.434 9.52148 26.5625C10.1617 27.691 10.9592 28.418 11.9141 28.7435V28.8411C11.0894 29.2101 10.6771 30.1324 10.6771 31.6081C10.6771 32.7582 11.122 33.5937 12.0117 34.1146V34.2122C9.55946 35.0152 8.33333 36.5234 8.33333 38.737C8.33333 39.7135 8.55035 40.5653 8.98437 41.2923C9.4184 42.0193 10.0043 42.5727 10.7422 42.9525C11.48 43.3322 12.2613 43.6089 13.0859 43.7826C13.9106 43.9562 14.7895 44.043 15.7227 44.043C20.5838 44.043 23.0143 42.003 23.0143 37.9232C23.0143 36.4692 22.4935 35.395 21.4518 34.7005C20.4102 34.0061 19.043 33.5069 17.3503 33.2031C16.7643 33.0946 16.2055 32.8722 15.6738 32.5358C15.1421 32.1994 14.8763 31.7708 14.8763 31.25C14.8763 30.2951 15.408 29.7309 16.4714 29.5573C18.1424 29.2318 19.4661 28.4722 20.4427 27.2786C21.4193 26.0851 21.9076 24.6311 21.9076 22.9167C21.9076 22.3958 21.799 21.8316 21.582 21.224C22.385 21.0286 22.9167 20.8876 23.1771 20.8008ZM25.0977 34.4401H29.5573C29.5139 33.8542 29.4922 32.9644 29.4922 31.7708V19.1732C29.4922 18.1749 29.5139 17.4262 29.5573 16.9271H25.0977C25.1628 17.4262 25.1953 18.1966 25.1953 19.2383V31.9987C25.1953 33.0838 25.1628 33.8976 25.0977 34.4401ZM41.6667 33.9193V29.9805C41.0156 30.4362 40.2778 30.6641 39.4531 30.6641C38.3029 30.6641 37.7279 29.7743 37.7279 27.9948V20.6706H39.4206C39.6159 20.6706 39.9034 20.6814 40.2832 20.7031C40.663 20.7248 40.9505 20.7357 41.1458 20.7357V16.9271H37.7279C37.7279 15.1476 37.7604 14.0408 37.8255 13.6068H33.2682C33.355 14.1276 33.3984 14.7244 33.3984 15.3971V16.9271H31.4453V20.7357C32.2266 20.6706 32.628 20.638 32.6497 20.638C32.7148 20.638 32.8342 20.6434 33.0078 20.6543C33.1814 20.6651 33.3116 20.6706 33.3984 20.6706V20.7357H33.3333V27.7995C33.3333 28.6024 33.3605 29.2969 33.4147 29.8828C33.469 30.4687 33.5937 31.0818 33.7891 31.722C33.9844 32.3622 34.2502 32.8885 34.5866 33.3008C34.923 33.7131 35.395 34.0495 36.0026 34.3099C36.6102 34.5703 37.3264 34.7005 38.151 34.7005C39.5399 34.7005 40.7118 34.4401 41.6667 33.9193ZM30.0781 10.9375C30.0781 10.1562 29.8177 9.46723 29.2969 8.87044C28.776 8.27365 28.125 7.97526 27.3437 7.97526C26.5625 7.97526 25.906 8.26823 25.3743 8.85417C24.8427 9.4401 24.5768 10.1345 24.5768 10.9375C24.5768 11.7187 24.8481 12.3969 25.3906 12.972C25.9332 13.5471 26.5842 13.8346 27.3437 13.8346C28.1033 13.8346 28.7489 13.5417 29.2806 12.9557C29.8123 12.3698 30.0781 11.697 30.0781 10.9375ZM50 9.375V40.625C50 43.2075 49.0831 45.4156 47.2493 47.2493C45.4156 49.0831 43.2075 50 40.625 50H9.375C6.79253 50 4.58442 49.0831 2.75065 47.2493C0.916884 45.4156 0 43.2075 0 40.625V9.375C0 6.79253 0.916884 4.58442 2.75065 2.75065C4.58442 0.916884 6.79253 0 9.375 0H40.625C43.2075 0 45.4156 0.916884 47.2493 2.75065C49.0831 4.58442 50 6.79253 50 9.375Z" fill="black"/>
</svg>
