<svg width="36" height="50" viewBox="0 0 36 50" fill="none" xmlns="http://www.w3.org/2000/svg">
<g clip-path="url(#clip0_120_11)">
<path d="M35.3969 9.80139L32.1779 45.8623L17.7084 49.8737L3.27876 45.8679L0.0631104 9.80139H35.3969Z" fill="#E44D26"/>
<path d="M17.73 46.8075L29.4221 43.5661L32.1728 12.7503H17.73V46.8075Z" fill="#F16529"/>
<path d="M11.4724 21.5972H17.73V17.1738H6.63818L6.744 18.3605L7.83126 30.5503H17.73V26.1269H11.8767L11.4724 21.5972V21.5972ZM12.4693 32.7621H8.0289L8.64857 39.7075L17.7097 42.2227L17.73 42.2172V37.615L17.7106 37.6201L12.7843 36.2899L12.4693 32.7621Z" fill="#EBEBEB"/>
<path d="M3.35046 0H5.59839V2.22091H7.65476V0H9.90282V6.72548H7.6549V4.47341H5.59852V6.72548H3.3506V0H3.35046ZM12.8588 2.23033H10.8801V0H17.087V2.23033H15.1071V6.72548H12.8592V2.23033H12.8591H12.8588ZM18.0721 0H20.416L21.8578 2.36316L23.2983 0H25.6431V6.72548H23.4043V3.39197L21.8578 5.78324H21.819L20.2715 3.39197V6.72548H18.0721V0ZM26.7618 0H29.0104V4.50249H32.1717V6.72548H26.7617V0H26.7618Z" fill="black"/>
<path d="M17.7147 30.5503H23.1617L22.6481 36.2871L17.7146 37.6187V42.2206L26.7829 39.7075L26.8494 38.9601L27.889 27.3147L27.9969 26.1269H17.7147V30.5503ZM17.7147 21.5864V21.5972H28.3994L28.488 20.6031L28.6897 18.3605L28.7953 17.1738H17.7147V21.5866V21.5864Z" fill="white"/>
</g>
<defs>
<clipPath id="clip0_120_11">
<rect width="35.46" height="50" fill="white"/>
</clipPath>
</defs>
</svg>
