<svg width="143" height="60" viewBox="0 0 143 60" fill="none" xmlns="http://www.w3.org/2000/svg">
<path d="M84.995 20.6744C81.8856 20.6744 79.57 22.2011 79.57 25.8756C79.57 28.6439 81.0961 30.5661 84.8273 30.5661C87.99 30.5661 90.1384 28.7022 90.1384 25.7606C90.1384 22.4272 88.2161 20.6744 84.995 20.6744V20.6744ZM78.7784 46.6194C78.0423 47.5222 77.3089 48.4822 77.3089 49.6139C77.3089 51.8733 80.19 52.5533 84.1478 52.5533C87.4256 52.5533 91.8911 52.3233 91.8911 49.2756C91.8911 47.4639 89.7428 47.3522 87.0284 47.1822L78.7784 46.6194V46.6194ZM95.5078 20.845C96.5234 22.145 97.5989 23.9544 97.5989 26.5539C97.5989 32.8272 92.6817 36.5006 85.5617 36.5006C83.7511 36.5006 82.1123 36.275 81.0961 35.9928L79.23 38.9872L84.7684 39.3261C94.5473 39.9494 100.31 40.2328 100.31 47.7467C100.31 54.2478 94.6034 57.9194 84.7684 57.9194C74.5389 57.9194 70.6389 55.3194 70.6389 50.855C70.6389 48.3117 71.7695 46.9578 73.7478 45.0894C71.8822 44.3011 71.2611 42.8889 71.2611 41.3617C71.2611 40.1172 71.8822 38.9878 72.9011 37.9128C73.9178 36.8406 75.0478 35.7656 76.4045 34.5222C73.6356 33.1656 71.5434 30.2267 71.5434 26.0433C71.5434 19.545 75.8395 15.0817 84.485 15.0817C86.9161 15.0817 88.3861 15.305 89.6861 15.6467H100.708V20.4489L95.5078 20.845V20.845ZM110.652 10.5744C107.429 10.5744 105.564 8.70778 105.564 5.485C105.564 2.26666 107.429 0.512775 110.652 0.512775C113.929 0.512775 115.795 2.26666 115.795 5.485C115.795 8.70778 113.93 10.5744 110.652 10.5744ZM103.359 44.5394V40.0767L106.243 39.6822C107.034 39.5683 107.147 39.3994 107.147 38.55V21.9333C107.147 21.3133 106.978 20.9156 106.411 20.7478L103.359 19.6728L103.981 15.0961H115.681V38.55C115.681 39.4556 115.736 39.5683 116.586 39.6828L119.468 40.0772V44.5394H103.359V44.5394ZM141.819 42.3483C139.388 43.5344 135.827 44.6083 132.604 44.6083C125.879 44.6083 123.337 41.8983 123.337 35.5083V20.7022C123.337 20.3633 123.337 20.1372 122.883 20.1372H118.927V15.1056C123.902 14.5389 125.879 12.0522 126.501 5.89166H131.871V13.9194C131.871 14.3139 131.871 14.4844 132.323 14.4844H140.292V20.1361H131.871V33.6433C131.871 36.9778 132.663 38.2767 135.713 38.2767C137.298 38.2767 138.935 37.8822 140.291 37.3733L141.819 42.3478" fill="#2F2707"/>
<path d="M58.0755 27.5167L32.2333 1.67611C31.8794 1.32209 31.4592 1.04126 30.9967 0.84966C30.5343 0.658061 30.0386 0.559444 29.538 0.559444C29.0374 0.559444 28.5418 0.658061 28.0793 0.84966C27.6168 1.04126 27.1967 1.32209 26.8427 1.67611L21.4766 7.04278L28.2839 13.8494C29.084 13.5773 29.9444 13.5347 30.7675 13.7265C31.5906 13.9183 32.3436 14.3367 32.9411 14.9344C33.5418 15.5359 33.9612 16.2943 34.1514 17.1228C34.3416 17.9514 34.2949 18.8167 34.0166 19.62L40.5761 26.1806C42.1633 25.6339 43.995 25.9878 45.2622 27.2572C45.6835 27.6783 46.0177 28.1782 46.2457 28.7285C46.4738 29.2787 46.5911 29.8685 46.5911 30.4642C46.5911 31.0598 46.4738 31.6496 46.2457 32.1999C46.0177 32.7501 45.6835 33.2501 45.2622 33.6711C44.5209 34.413 43.5455 34.8752 42.5019 34.9788C41.4582 35.0825 40.4109 34.8213 39.5382 34.2396C38.6655 33.658 38.0213 32.7919 37.7153 31.7888C37.4094 30.7857 37.4605 29.7075 37.86 28.7378L31.7422 22.62L31.7416 38.72C32.1851 38.9393 32.5902 39.229 32.9411 39.5778C33.3624 39.999 33.6965 40.499 33.9245 41.0493C34.1525 41.5997 34.2699 42.1896 34.2699 42.7853C34.2699 43.381 34.1525 43.9709 33.9245 44.5212C33.6965 45.0716 33.3624 45.5716 32.9411 45.9928C31.1689 47.765 28.2966 47.765 26.5272 45.9928C25.9986 45.4645 25.6087 44.8139 25.3921 44.0986C25.1756 43.3833 25.1392 42.6257 25.2861 41.8929C25.433 41.1602 25.7587 40.4751 26.2342 39.8986C26.7097 39.3221 27.3202 38.872 28.0116 38.5883V22.3383C27.4554 22.1112 26.9506 21.7745 26.5272 21.3483C25.185 20.0078 24.8622 18.0383 25.55 16.39L18.84 9.67889L1.12108 27.3967C0.767009 27.7507 0.486144 28.171 0.294522 28.6336C0.102899 29.0962 0.00427246 29.5921 0.00427246 30.0928C0.00427246 30.5935 0.102899 31.0893 0.294522 31.5519C0.486144 32.0145 0.767009 32.4348 1.12108 32.7889L26.9633 58.63C27.6782 59.3447 28.6477 59.7462 29.6586 59.7462C30.6695 59.7462 31.639 59.3447 32.3539 58.63L58.0755 32.9094C58.7904 32.1942 59.1919 31.2243 59.1919 30.2131C59.1919 29.2018 58.7904 28.2319 58.0755 27.5167" fill="#DE4C36"/>
</svg>
