<svg width="16" height="16" viewBox="0 0 16 16" fill="none" xmlns="http://www.w3.org/2000/svg">
<path d="M2.99996 3.99998C3.73634 3.99998 4.33329 3.40303 4.33329 2.66665C4.33329 1.93027 3.73634 1.33331 2.99996 1.33331C2.26358 1.33331 1.66663 1.93027 1.66663 2.66665C1.66663 3.40303 2.26358 3.99998 2.99996 3.99998Z" stroke="black" stroke-width="1.33333"/>
<path d="M1.66663 6H4.33329V14.3333H1.66663V6ZM6.99996 9.16667V14.3333H9.33329V9.66667C9.33329 8.83333 9.83329 8.16667 10.6666 8.16667C11.5 8.16667 12 9 12 9.66667V14.3333H14.3333V9.16667C14.3333 8.16667 13.1666 6 10.6666 6C8.16663 6 6.99996 8.16667 6.99996 9.16667Z" stroke="black" stroke-width="1.33333" stroke-linejoin="round"/>
</svg>
