<svg width="51" height="50" viewBox="0 0 51 50" fill="none" xmlns="http://www.w3.org/2000/svg">
<g clip-path="url(#clip0_120_17)">
<path d="M50.4599 19.625C50.461 18.9462 50.2823 18.2793 49.9419 17.6919C49.6016 17.1046 49.1118 16.6179 48.5224 16.2813L27.4599 3.78126C26.8529 3.4271 26.1627 3.24048 25.4599 3.24048C24.7571 3.24048 24.0669 3.4271 23.4599 3.78126L2.36616 16.2813C1.78326 16.6271 1.30039 17.1187 0.964997 17.7077C0.629608 18.2967 0.453247 18.9628 0.453247 19.6406C0.453247 20.3184 0.629608 20.9846 0.964997 21.5735C1.30039 22.1625 1.78326 22.6541 2.36616 23L8.36616 26.5V35.2813C8.36977 35.9675 8.5499 36.6414 8.88921 37.2379C9.22853 37.8344 9.71563 38.3336 10.3037 38.6875L23.5849 46.3438C24.1779 46.6721 24.8446 46.8443 25.5224 46.8443C26.2002 46.8443 26.8669 46.6721 27.4599 46.3438L40.7412 38.6875C41.3292 38.3336 41.8163 37.8344 42.1556 37.2379C42.4949 36.6414 42.6751 35.9675 42.6787 35.2813V26.4063L46.5537 24.125V32.625H50.4599V19.625ZM38.8037 35.25L25.4599 42.9375L12.2724 35.2813V28.8125L23.4599 35.4688C24.069 35.8168 24.7584 35.9999 25.4599 35.9999C26.1614 35.9999 26.8508 35.8168 27.4599 35.4688L38.7724 28.7188L38.8037 35.25ZM25.4599 32.0938L4.36616 19.5938L25.4599 7.06251L46.5537 19.5625L25.4599 32.0938Z" fill="black"/>
</g>
<defs>
<clipPath id="clip0_120_17">
<rect width="50" height="50" fill="white" transform="translate(0.459961)"/>
</clipPath>
</defs>
</svg>
